<svg width="32" height="33" viewBox="0 0 32 33" fill="none" xmlns="http://www.w3.org/2000/svg">
<path d="M13.9592 11.3255C14.3498 10.9339 14.9829 10.9339 15.3734 11.3255L18.6664 14.6279L21.9592 11.3255C22.3498 10.9339 22.9829 10.9339 23.3735 11.3255C23.764 11.7172 23.764 12.3522 23.3735 12.7438L20.0806 16.0462L23.3734 19.3486C23.764 19.7403 23.764 20.3753 23.3734 20.7669C22.9829 21.1586 22.3498 21.1586 21.9592 20.7669L18.6664 17.4645L15.3735 20.7669C14.9829 21.1586 14.3498 21.1586 13.9592 20.7669C13.5687 20.3753 13.5687 19.7403 13.9592 19.3486L17.2521 16.0462L13.9592 12.7438C13.5687 12.3522 13.5687 11.7172 13.9592 11.3255Z" fill="#F9F9F9"/>
<path fill-rule="evenodd" clip-rule="evenodd" d="M11.2076 6.61908C9.67284 6.61908 8.22311 7.32597 7.27521 8.53651L2.52654 14.601C1.86225 15.4493 1.86225 16.6432 2.52654 17.4915L7.27521 23.556C8.22311 24.7665 9.67285 25.4734 11.2076 25.4734H25.4032C27.4282 25.4734 29.0698 23.8271 29.0698 21.7962V10.2963C29.0698 8.26545 27.4282 6.61908 25.4032 6.61908H11.2076ZM8.84817 9.77532C9.41691 9.049 10.2867 8.62486 11.2076 8.62486H25.4032C26.3236 8.62486 27.0698 9.37321 27.0698 10.2963V21.7962C27.0698 22.7193 26.3237 23.4676 25.4032 23.4676H11.2076C10.2867 23.4676 9.41691 23.0435 8.84817 22.3172L4.09949 16.2527C4.0046 16.1315 4.0046 15.961 4.09949 15.8398L8.84817 9.77532Z" fill="#F9F9F9"/>
</svg>
