<svg width="23" height="20" viewBox="0 0 23 20" fill="none" xmlns="http://www.w3.org/2000/svg">
<path fill-rule="evenodd" clip-rule="evenodd" d="M11.5019 0.100241C12.0446 0.109682 12.5018 0.372199 12.8666 0.646796L12.9266 0.691976L22.3029 10.5773L22.3517 10.8384C22.4188 11.1972 22.4421 11.6438 22.2386 12.0693C22.0201 12.5261 21.6276 12.7833 21.2279 12.9239L21.083 12.9748H16.3996V17.5057C16.3996 18.5555 15.5459 19.4 14.501 19.4H7.99956C6.95473 19.4 6.10102 18.5555 6.10102 17.5057V12.9748H1.39083L1.22511 12.906C0.845053 12.7482 0.473634 12.4869 0.262611 12.0494C0.0587434 11.6267 0.0775484 11.188 0.150105 10.8267L0.203888 10.5588L10.0861 0.719049L10.0954 0.710278C10.46 0.367394 10.9232 0.0901729 11.5019 0.100241ZM11.3369 2.0137L2.13634 11.1748H7.90102V17.5057C7.90102 17.5541 7.94151 17.6 7.99956 17.6H14.501C14.5591 17.6 14.5996 17.5541 14.5996 17.5057V11.1748H20.3887L11.7278 2.04376C11.5878 1.94423 11.5106 1.91319 11.4806 1.90375C11.4577 1.91586 11.4102 1.94583 11.3369 2.0137Z" fill="#49525A"/>
</svg>
