<svg width="24" height="24" viewBox="0 0 24 24" fill="none" xmlns="http://www.w3.org/2000/svg">
<path d="M21 11C21.5523 11 22 10.5523 22 10V4C22 3.44772 21.5523 3 21 3H16C15.4477 3 15 3.44772 15 4V6H9V4C9 3.44772 8.55228 3 8 3H3C2.44772 3 2 3.44772 2 4V10C2 10.5523 2.44772 11 3 11H8C8.55228 11 9 10.5523 9 10V8H11V17C11 17.5523 11.4477 18 12 18H15V20C15 20.5523 15.4477 21 16 21H21C21.5523 21 22 20.5523 22 20V14C22 13.4477 21.5523 13 21 13H16C15.4477 13 15 13.4477 15 14V16H13V8H15V10C15 10.5523 15.4477 11 16 11H21Z" fill="#F3B352"/>
</svg>
