<svg width="24" height="24" viewBox="0 0 24 24" fill="none" xmlns="http://www.w3.org/2000/svg">
<path d="M14 3C14 3.26522 14.1054 3.51957 14.2929 3.70711C14.4804 3.89464 14.7348 4 15 4L19 4C19.2652 4 19.5196 4.10536 19.7071 4.29289C19.8946 4.48043 20 4.73478 20 5L20 19C20 19.2652 19.8946 19.5196 19.7071 19.7071C19.5196 19.8946 19.2652 20 19 20L15 20C14.7348 20 14.4804 20.1054 14.2929 20.2929C14.1054 20.4804 14 20.7348 14 21C14 21.2652 14.1054 21.5196 14.2929 21.7071C14.4804 21.8946 14.7348 22 15 22L19 22C19.7956 22 20.5587 21.6839 21.1213 21.1213C21.6839 20.5587 22 19.7956 22 19L22 5C22 4.20435 21.6839 3.44129 21.1213 2.87868C20.5587 2.31607 19.7956 2 19 2L15 2C14.7348 2 14.4804 2.10536 14.2929 2.29289C14.1054 2.48043 14 2.73478 14 3ZM15.71 12.71C15.801 12.6149 15.8724 12.5028 15.92 12.38C15.9729 12.2603 16.0002 12.1309 16.0002 12C16.0002 11.8691 15.9729 11.7397 15.92 11.62C15.8724 11.4972 15.801 11.3851 15.71 11.29L11.71 7.29C11.5217 7.1017 11.2663 6.99591 11 6.99591C10.7337 6.99591 10.4783 7.1017 10.29 7.29C10.1017 7.4783 9.99591 7.7337 9.99591 8C9.99591 8.2663 10.1017 8.5217 10.29 8.71L12.59 11L3 11C2.73478 11 2.48043 11.1054 2.29289 11.2929C2.10536 11.4804 2 11.7348 2 12C2 12.2652 2.10536 12.5196 2.29289 12.7071C2.48043 12.8946 2.73478 13 3 13L12.59 13L10.29 15.29C10.1968 15.3832 10.1228 15.4939 10.0723 15.6157C10.0219 15.7376 9.99591 15.8681 9.99591 16C9.99591 16.1319 10.0219 16.2624 10.0723 16.3842C10.1228 16.5061 10.1968 16.6168 10.29 16.71C10.3832 16.8032 10.4939 16.8772 10.6158 16.9277C10.7376 16.9781 10.8681 17.0041 11 17.0041C11.1319 17.0041 11.2624 16.9781 11.3842 16.9277C11.5061 16.8772 11.6168 16.8032 11.71 16.71L15.71 12.71Z" fill="#0E1927"/>
</svg>
