<svg width="24" height="24" viewBox="0 0 24 24" fill="none" xmlns="http://www.w3.org/2000/svg">
<path d="M7.7099 15.29L5.4099 13L14.9999 13C15.2651 13 15.5195 12.8946 15.707 12.7071C15.8945 12.5196 15.9999 12.2652 15.9999 12C15.9999 11.7348 15.8945 11.4804 15.707 11.2929C15.5195 11.1054 15.2651 11 14.9999 11L5.4099 11L7.7099 8.71C7.80362 8.61704 7.87802 8.50644 7.92879 8.38458C7.97956 8.26272 8.00569 8.13201 8.00569 8C8.00569 7.86799 7.97956 7.73728 7.92879 7.61542C7.87802 7.49356 7.80362 7.38296 7.7099 7.29C7.61693 7.19627 7.50633 7.12188 7.38447 7.07111C7.26261 7.02034 7.13191 6.9942 6.9999 6.9942C6.86788 6.9942 6.73718 7.02034 6.61532 7.07111C6.49346 7.12188 6.38286 7.19627 6.2899 7.29L2.2899 11.29C2.19886 11.3851 2.12749 11.4972 2.0799 11.62C1.97988 11.8635 1.97988 12.1365 2.0799 12.38C2.12749 12.5028 2.19886 12.6149 2.2899 12.71L6.2899 16.71C6.38313 16.8032 6.49383 16.8772 6.61565 16.9277C6.73747 16.9781 6.86804 17.0041 6.9999 17.0041C7.13176 17.0041 7.26232 16.9781 7.38415 16.9277C7.50597 16.8772 7.61666 16.8032 7.7099 16.71C7.80313 16.6168 7.8771 16.5061 7.92756 16.3842C7.97802 16.2624 8.00399 16.1319 8.00399 16C8.00399 15.8681 7.97802 15.7376 7.92756 15.6158C7.8771 15.4939 7.80313 15.3832 7.7099 15.29ZM13.9999 3C13.9999 3.26522 14.1053 3.51957 14.2928 3.70711C14.4803 3.89464 14.7347 4 14.9999 4L18.9999 4C19.2651 4 19.5195 4.10536 19.707 4.29289C19.8945 4.48043 19.9999 4.73478 19.9999 5L19.9999 19C19.9999 19.2652 19.8945 19.5196 19.707 19.7071C19.5195 19.8946 19.2651 20 18.9999 20L14.9999 20C14.7347 20 14.4803 20.1054 14.2928 20.2929C14.1053 20.4804 13.9999 20.7348 13.9999 21C13.9999 21.2652 14.1053 21.5196 14.2928 21.7071C14.4803 21.8946 14.7347 22 14.9999 22L18.9999 22C19.7955 22 20.5586 21.6839 21.1212 21.1213C21.6838 20.5587 21.9999 19.7956 21.9999 19L21.9999 5C21.9999 4.20435 21.6838 3.44129 21.1212 2.87868C20.5586 2.31607 19.7955 2 18.9999 2L14.9999 2C14.7347 2 14.4803 2.10536 14.2928 2.29289C14.1053 2.48043 13.9999 2.73478 13.9999 3Z" fill="#0E1927"/>
</svg>
