<svg width="16" height="24" viewBox="0 0 16 24" fill="none" xmlns="http://www.w3.org/2000/svg">
<path fill-rule="evenodd" clip-rule="evenodd" d="M9.9004 3.64813C12.544 3.93285 14.617 4.81431 14.8468 7.44001C15.0027 9.35421 14.263 10.4931 13.0398 11.135C15.0147 11.6728 16.2159 12.9371 15.9677 15.7417C15.6655 19.257 13.2549 20.1701 9.80845 20.3627L9.81385 23.992L7.78412 23.9948L7.77871 20.3656C7.55688 20.362 7.32495 20.3656 7.08708 20.3694C6.76922 20.3743 6.44074 20.3795 6.11156 20.3679L6.11696 23.9972L4.09093 24L4.08553 20.3707L0.0263936 20.2832L0.36847 17.6309C0.36847 17.6309 1.90153 17.6677 1.8731 17.6485C2.43749 17.6452 2.605 17.2087 2.64672 16.922L2.63662 11.1042L2.65256 6.96347C2.59024 6.53187 2.32102 6.014 1.49126 5.99828C1.53645 5.95408 0.00513894 6.00037 0.00513894 6.00037L0 3.5688L4.15959 3.56297L4.1543 0.00805279L6.24985 0.00511415L6.25515 3.56003C6.65968 3.54781 7.05874 3.5513 7.46229 3.55484H7.4623L7.46235 3.55484C7.59478 3.556 7.72768 3.55716 7.86143 3.55778L7.85614 0.00286164L9.89504 0L9.9004 3.64813ZM6.00565 10.3366L6.10856 10.3415C7.34219 10.4001 11 10.5741 11.0056 8.15473C11 5.85772 7.88697 5.93183 6.44055 5.96627C6.26971 5.97033 6.12212 5.97385 6.00565 5.97284V10.3366ZM6.17849 17.4629C6.11369 17.46 6.05398 17.4573 5.9999 17.4551L5.9999 13.0913C6.12877 13.0926 6.29083 13.0904 6.47822 13.0878C8.18761 13.0646 12.0057 13.0128 11.9876 15.3284C12.0069 17.7236 7.6972 17.5308 6.17849 17.4629Z" fill="#F3B352"/>
</svg>
