<svg width="27" height="24" viewBox="0 0 27 24" fill="none" xmlns="http://www.w3.org/2000/svg">
<path fill-rule="evenodd" clip-rule="evenodd" d="M5.21094 7.29956C2.7644 9.64478 2 10.4873 2 11.5C2 12.5125 2.76392 13.3547 5.20752 15.6973C5.3335 15.8181 5.4624 15.9409 5.59399 16.0654C5.87866 16.335 6.17139 16.6089 6.46875 16.8845C6.89575 17.2798 7.33252 17.6787 7.76904 18.0728C8.02808 18.3066 8.2688 18.5222 8.48486 18.7146L8.62256 18.8369L8.75952 18.958C9.43774 19.5647 10.5798 20 11.5017 20H20.9985C22.9297 20 24.5 18.4336 24.5 16.5015V6.49854C24.5 4.56763 22.9314 3 20.9985 3H11.5017C10.5786 3 9.4458 3.43042 8.75952 4.04175L8.74731 4.05273C8.69922 4.09521 8.6106 4.17334 8.49121 4.27979C8.2749 4.47241 8.03394 4.68823 7.77466 4.92236C7.0332 5.5918 6.2915 6.27441 5.59741 6.9314L5.41895 7.10083L5.21094 7.29956ZM9.75098 17.8325C9.75098 17.8325 3.5 12.3269 3.5 11.5C3.5 10.6731 9.75757 5.16162 9.75757 5.16162C10.1675 4.79614 10.9448 4.5 11.5017 4.5H20.9985C22.104 4.5 23 5.39697 23 6.49854V16.5015C23 17.6052 22.1011 18.5 20.9985 18.5H11.5017C10.9485 18.5 10.1624 18.2004 9.75098 17.8325Z" fill="black"/>
<path d="M12.5303 9.09112C12.2374 8.79823 12.2374 8.32335 12.5303 8.03046C12.8232 7.73757 13.2981 7.73757 13.591 8.03046L19.6014 14.0409C19.8943 14.3338 19.8943 14.8086 19.6014 15.1015C19.3085 15.3944 18.8336 15.3944 18.5407 15.1015L12.5303 9.09112Z" fill="black"/>
<path d="M18.541 8.03033C18.8339 7.73744 19.3087 7.73744 19.6016 8.03033C19.8945 8.32322 19.8945 8.7981 19.6016 9.09099L13.5912 15.1014C13.2983 15.3943 12.8234 15.3943 12.5306 15.1014C12.2377 14.8085 12.2377 14.3336 12.5306 14.0407L18.541 8.03033Z" fill="black"/>
</svg>
