<svg width="42" height="40" viewBox="0 0 42 40" fill="none" xmlns="http://www.w3.org/2000/svg">
<path fill-rule="evenodd" clip-rule="evenodd" d="M2.03125 10.9766V6.48438C2.03125 4.02891 4.02895 2.03125 6.48438 2.03125H10.9766C11.5375 2.03125 11.9922 1.57652 11.9922 1.01562C11.9922 0.454727 11.5375 0 10.9766 0H6.48438C2.90891 0 0 2.90887 0 6.48438V10.9766C0 11.5375 0.454727 11.9922 1.01562 11.9922C1.57652 11.9922 2.03125 11.5375 2.03125 10.9766ZM10.9766 37.9688C11.5375 37.9688 11.9922 38.4235 11.9922 38.9844C11.9922 39.5453 11.5375 40 10.9766 40H6.48438C2.90891 40 0 37.0911 0 33.5156V29.0234C0 28.4625 0.454727 28.0078 1.01562 28.0078C1.57652 28.0078 2.03125 28.4625 2.03125 29.0234V33.5156C2.03125 35.9711 4.02895 37.9688 6.48438 37.9688H10.9766ZM40 29.0234V33.5156C40 37.0911 37.0911 40 33.5156 40H29.0234C28.4625 40 28.0078 39.5453 28.0078 38.9844C28.0078 38.4235 28.4625 37.9688 29.0234 37.9688H33.5156C35.9711 37.9688 37.9688 35.9711 37.9688 33.5156V29.0234C37.9688 28.4625 38.4235 28.0078 38.9844 28.0078C39.5453 28.0078 40 28.4625 40 29.0234ZM40 6.48438V10.9766C40 11.5375 39.5453 11.9922 38.9844 11.9922C38.4235 11.9922 37.9688 11.5375 37.9688 10.9766V6.48438C37.9688 4.02891 35.9711 2.03125 33.5156 2.03125H29.0234C28.4625 2.03125 28.0078 1.57652 28.0078 1.01562C28.0078 0.454727 28.4625 0 29.0234 0H33.5156C37.0911 0 40 2.90887 40 6.48438ZM27.009 29.5639C27.4368 29.1687 27.4633 28.5014 27.0681 28.0735C26.6728 27.6457 26.0056 27.6192 25.5777 28.0144C24.0551 29.4208 22.0743 30.1953 20 30.1953C17.9258 30.1953 15.9449 29.4208 14.4224 28.0144C13.9944 27.6192 13.3272 27.6457 12.932 28.0735C12.5367 28.5014 12.5632 29.1687 12.9911 29.5639C14.9045 31.3314 17.3936 32.3047 20 32.3047C22.6064 32.3047 25.0955 31.3314 27.009 29.5639ZM22.1094 15.0781V22.5781C22.1094 24.0643 20.9003 25.2734 19.4141 25.2734H18.5547C17.9722 25.2734 17.5 24.8013 17.5 24.2188C17.5 23.6362 17.9722 23.1641 18.5547 23.1641H19.4141C19.7371 23.1641 20 22.9012 20 22.5781V15.0781C20 14.4956 20.4722 14.0234 21.0547 14.0234C21.6372 14.0234 22.1094 14.4956 22.1094 15.0781ZM29.375 18.0273V15.0195C29.375 14.4694 28.929 14.0234 28.3789 14.0234C27.8288 14.0234 27.3828 14.4694 27.3828 15.0195V18.0273C27.3828 18.5775 27.8288 19.0234 28.3789 19.0234C28.929 19.0234 29.375 18.5775 29.375 18.0273ZM10.8594 18.0273C10.8594 18.5775 11.3054 19.0234 11.8555 19.0234C12.4056 19.0234 12.8516 18.5775 12.8516 18.0273V15.0195C12.8516 14.4694 12.4056 14.0234 11.8555 14.0234C11.3054 14.0234 10.8594 14.4694 10.8594 15.0195V18.0273Z" fill="black"/>
</svg>
