<svg width="50" height="50" viewBox="0 0 50 50" fill="none" xmlns="http://www.w3.org/2000/svg">
<path fill-rule="evenodd" clip-rule="evenodd" d="M39.5758 40.1224C38.779 41.0635 37.7225 41.6688 36.5583 41.771L33.3408 42.0534C26.5559 42.6489 19.7451 42.6489 12.9602 42.0534L9.986 41.7924C7.63647 41.5862 5.69854 39.4554 5.27516 36.6128C4.41736 30.8535 4.27051 24.9686 4.83953 19.1557L5.37481 13.6874C5.69247 10.4422 7.93666 8 10.601 8H15.1026C17.2984 8 19.1278 9.92418 19.5316 12.473L35.8648 12.473C38.431 12.473 40.6169 14.7605 41.0214 17.8693L41.1473 18.8367C41.1737 19.0399 41.1992 19.2434 41.2237 19.4469H41.8838C44.7762 19.4469 46.7648 23.0131 45.7165 26.3201L43.262 34.0627C42.4999 36.4669 41.2212 38.5575 39.5758 40.1224ZM38.1116 18.439L38.2374 19.4064C38.2392 19.4199 38.2409 19.4334 38.2427 19.4469H19.9493C17.7183 19.4469 15.7167 21.1293 14.9114 23.6817L10.3306 38.1986L10.1963 38.1868C9.18758 38.0982 8.3556 37.1835 8.17384 35.9631C7.36914 30.5603 7.23138 25.0397 7.76517 19.5867L8.30045 14.1184C8.44029 12.6899 9.42817 11.6148 10.601 11.6148H15.1026C15.9671 11.6148 16.6678 12.4745 16.6678 13.5349C16.6678 14.9448 17.5996 16.0878 18.7489 16.0878H35.8648C36.9829 16.0878 37.9353 17.0845 38.1116 18.439ZM13.4053 38.4682C19.9724 39.0309 26.5639 39.0241 33.1305 38.4478L36.348 38.1654L36.7303 38.1216L36.7276 38.1157C38.4574 36.9184 39.7959 35.0233 40.5157 32.7525L42.9702 25.0099C43.2673 24.0726 42.7037 23.0617 41.8838 23.0617H19.9493C18.9352 23.0617 18.0254 23.8264 17.6593 24.9866L13.4053 38.4682Z" fill="#C0CAD7"/>
</svg>
