<svg width="24" height="24" viewBox="0 0 24 24" fill="none" xmlns="http://www.w3.org/2000/svg">
<path d="M22 7.23962C22.0007 7.10803 21.9755 6.97758 21.9258 6.85575C21.876 6.73392 21.8027 6.62311 21.71 6.52968L17.47 2.29C17.3765 2.19732 17.2657 2.124 17.1439 2.07424C17.0221 2.02448 16.8916 1.99926 16.76 2.00002C16.6284 1.99926 16.4979 2.02448 16.3761 2.07424C16.2542 2.124 16.1434 2.19732 16.05 2.29L13.22 5.11978L2.29002 16.049C2.19733 16.1424 2.12401 16.2532 2.07425 16.375C2.02448 16.4969 1.99926 16.6273 2.00002 16.7589V20.9986C2.00002 21.2638 2.10537 21.5181 2.29291 21.7057C2.48045 21.8932 2.7348 21.9985 3.00001 21.9985H7.24001C7.37993 22.0061 7.5199 21.9843 7.65083 21.9343C7.78175 21.8843 7.90072 21.8074 8.00001 21.7085L18.87 10.7794L21.71 7.99957C21.8013 7.90266 21.8756 7.79112 21.93 7.66959C21.9396 7.58989 21.9396 7.50932 21.93 7.42961C21.9347 7.38307 21.9347 7.33617 21.93 7.28962L22 7.23962ZM6.83001 19.9987H4.00001V17.1689L13.93 7.23962L16.76 10.0694L6.83001 19.9987ZM18.17 8.65952L15.34 5.82973L16.76 4.41984L19.58 7.23962L18.17 8.65952Z" fill="#C0CAD7"/>
</svg>
