<svg width="20" height="20" viewBox="0 0 20 20" fill="none" xmlns="http://www.w3.org/2000/svg">
<mask id="path-1-outside-1_664_3578" maskUnits="userSpaceOnUse" x="0" y="0" width="20" height="20" fill="black">
<rect fill="white" width="20" height="20"/>
<path fill-rule="evenodd" clip-rule="evenodd" d="M7 2.47541V2.45777V1H6.86624C6.39614 1 5.9411 1.09242 5.50192 1.2771C5.06226 1.46197 4.67413 1.72711 4.33867 2.07247C4.00467 2.41633 3.75688 2.79247 3.59923 3.20149L3.59849 3.20347C3.45073 3.6028 3.35221 4.01801 3.30299 4.44876L3.30278 4.4508C3.26016 4.87075 3.24805 5.30266 3.26626 5.74643C3.28408 6.18068 3.29299 6.61493 3.29299 7.04918C3.29299 7.35334 3.23462 7.6389 3.118 7.9076L3.11741 7.90901C3.00531 8.17444 2.85134 8.40799 2.65475 8.61038C2.46466 8.80608 2.23699 8.96583 1.97008 9.08875C1.7059 9.20431 1.42746 9.26229 1.13376 9.26229H1V9.4V10.6V10.7377H1.13376C1.42698 10.7377 1.70502 10.7986 1.96901 10.92L1.97113 10.9209C2.23686 11.0373 2.46366 11.1964 2.65331 11.3974L2.65618 11.4003C2.85142 11.5955 3.00489 11.8281 3.11693 12.0991L3.11801 12.1016C3.23479 12.3707 3.29299 12.6532 3.29299 12.9508C3.29299 13.3851 3.28408 13.8193 3.26626 14.2536C3.24804 14.6974 3.26015 15.1323 3.30274 15.5582L3.30303 15.5607C3.35229 15.9854 3.45081 16.3975 3.59848 16.7965L3.59924 16.7985C3.75689 17.2075 4.00467 17.5837 4.33867 17.9275C4.67413 18.2729 5.06226 18.538 5.50192 18.7229C5.9411 18.9076 6.39614 19 6.86624 19H7V17.8V17.5246H6.86624C6.56642 17.5246 6.28519 17.4665 6.02144 17.3512C5.76094 17.2286 5.5329 17.069 5.33629 16.8727C5.1458 16.6704 4.99156 16.4367 4.87334 16.1706C4.76257 15.9019 4.70701 15.6161 4.70701 15.3115C4.70701 14.9691 4.71295 14.6328 4.72482 14.3029C4.73687 13.9616 4.7369 13.6293 4.72486 13.3059C4.71871 12.9737 4.69126 12.6532 4.64234 12.3447C4.5927 12.0254 4.50882 11.7214 4.39058 11.433C4.27136 11.1424 4.10886 10.8662 3.90424 10.6045C3.73518 10.3882 3.52807 10.1869 3.28424 10C3.52807 9.81307 3.73518 9.61178 3.90424 9.39553C4.10886 9.1338 4.27136 8.85764 4.39058 8.56696C4.5087 8.27895 4.59269 7.97762 4.64238 7.66427C4.69123 7.34995 4.7187 7.0296 4.72486 6.70328C4.7369 6.37393 4.73688 6.04158 4.72482 5.70624C4.71294 5.37011 4.70701 5.03087 4.70701 4.68852C4.70701 4.39029 4.76249 4.10729 4.87358 3.83808C4.99203 3.56552 5.14631 3.33213 5.33629 3.13655C5.5329 2.93414 5.76191 2.77412 6.02202 2.65769C6.2857 2.5364 6.5667 2.47541 6.86624 2.47541H7ZM13 17.5246V17.5422L13 19H13.1338C13.6039 19 14.0589 18.9076 14.4981 18.7229C14.9377 18.538 15.3259 18.2729 15.6613 17.9275C15.9953 17.5837 16.2431 17.2075 16.4008 16.7985L16.4015 16.7965C16.5493 16.3972 16.6478 15.982 16.697 15.5512L16.6972 15.5492C16.7398 15.1292 16.752 14.6973 16.7337 14.2536C16.7159 13.8193 16.707 13.3851 16.707 12.9508C16.707 12.6467 16.7654 12.3611 16.882 12.0924L16.8826 12.091C16.9947 11.8256 17.1487 11.592 17.3452 11.3896C17.5353 11.1939 17.763 11.0342 18.0299 10.9113C18.2941 10.7957 18.5725 10.7377 18.8662 10.7377H19V10.6V9.4V9.26229H18.8662C18.573 9.26229 18.295 9.20143 18.031 9.07999L18.0289 9.07907C17.7631 8.96265 17.5363 8.80357 17.3467 8.60258L17.3438 8.59971C17.1486 8.40445 16.9951 8.17194 16.8831 7.90087L16.882 7.89838C16.7652 7.62929 16.707 7.34675 16.707 7.04918C16.707 6.61493 16.7159 6.18068 16.7337 5.74643C16.752 5.30262 16.7398 4.86772 16.6973 4.44181L16.697 4.43927C16.6477 4.01457 16.5492 3.60253 16.4015 3.20346L16.4008 3.20149C16.2431 2.79248 15.9953 2.41633 15.6613 2.07247C15.3259 1.72711 14.9377 1.46197 14.4981 1.2771C14.0589 1.09242 13.6039 1 13.1338 1H13V2.2V2.47541H13.1338C13.4336 2.47541 13.7148 2.53345 13.9786 2.64875C14.2391 2.77139 14.4671 2.93105 14.6637 3.12735C14.8542 3.32958 15.0084 3.56334 15.1267 3.82942C15.2374 4.0981 15.293 4.38394 15.293 4.68852C15.293 5.0309 15.2871 5.36717 15.2752 5.69712C15.2631 6.03841 15.2631 6.37074 15.2751 6.69408C15.2813 7.0263 15.3087 7.34676 15.3577 7.65531C15.4073 7.97464 15.4912 8.27865 15.6094 8.56696C15.7286 8.85764 15.8911 9.13381 16.0958 9.39553C16.2648 9.61178 16.4719 9.81307 16.7158 10C16.4719 10.1869 16.2648 10.3882 16.0958 10.6045C15.8911 10.8662 15.7286 11.1424 15.6094 11.433C15.4913 11.7211 15.4073 12.0224 15.3576 12.3357C15.3088 12.65 15.2813 12.9704 15.2751 13.2967C15.2631 13.6261 15.2631 13.9584 15.2752 14.2938C15.2871 14.6299 15.293 14.9691 15.293 15.3115C15.293 15.6097 15.2375 15.8927 15.1264 16.1619C15.008 16.4345 14.8537 16.6679 14.6637 16.8634C14.4671 17.0659 14.2381 17.2259 13.978 17.3423C13.7143 17.4636 13.4333 17.5246 13.1338 17.5246H13Z"/>
</mask>
<path fill-rule="evenodd" clip-rule="evenodd" d="M7 2.47541V2.45777V1H6.86624C6.39614 1 5.9411 1.09242 5.50192 1.2771C5.06226 1.46197 4.67413 1.72711 4.33867 2.07247C4.00467 2.41633 3.75688 2.79247 3.59923 3.20149L3.59849 3.20347C3.45073 3.6028 3.35221 4.01801 3.30299 4.44876L3.30278 4.4508C3.26016 4.87075 3.24805 5.30266 3.26626 5.74643C3.28408 6.18068 3.29299 6.61493 3.29299 7.04918C3.29299 7.35334 3.23462 7.6389 3.118 7.9076L3.11741 7.90901C3.00531 8.17444 2.85134 8.40799 2.65475 8.61038C2.46466 8.80608 2.23699 8.96583 1.97008 9.08875C1.7059 9.20431 1.42746 9.26229 1.13376 9.26229H1V9.4V10.6V10.7377H1.13376C1.42698 10.7377 1.70502 10.7986 1.96901 10.92L1.97113 10.9209C2.23686 11.0373 2.46366 11.1964 2.65331 11.3974L2.65618 11.4003C2.85142 11.5955 3.00489 11.8281 3.11693 12.0991L3.11801 12.1016C3.23479 12.3707 3.29299 12.6532 3.29299 12.9508C3.29299 13.3851 3.28408 13.8193 3.26626 14.2536C3.24804 14.6974 3.26015 15.1323 3.30274 15.5582L3.30303 15.5607C3.35229 15.9854 3.45081 16.3975 3.59848 16.7965L3.59924 16.7985C3.75689 17.2075 4.00467 17.5837 4.33867 17.9275C4.67413 18.2729 5.06226 18.538 5.50192 18.7229C5.9411 18.9076 6.39614 19 6.86624 19H7V17.8V17.5246H6.86624C6.56642 17.5246 6.28519 17.4665 6.02144 17.3512C5.76094 17.2286 5.5329 17.069 5.33629 16.8727C5.1458 16.6704 4.99156 16.4367 4.87334 16.1706C4.76257 15.9019 4.70701 15.6161 4.70701 15.3115C4.70701 14.9691 4.71295 14.6328 4.72482 14.3029C4.73687 13.9616 4.7369 13.6293 4.72486 13.3059C4.71871 12.9737 4.69126 12.6532 4.64234 12.3447C4.5927 12.0254 4.50882 11.7214 4.39058 11.433C4.27136 11.1424 4.10886 10.8662 3.90424 10.6045C3.73518 10.3882 3.52807 10.1869 3.28424 10C3.52807 9.81307 3.73518 9.61178 3.90424 9.39553C4.10886 9.1338 4.27136 8.85764 4.39058 8.56696C4.5087 8.27895 4.59269 7.97762 4.64238 7.66427C4.69123 7.34995 4.7187 7.0296 4.72486 6.70328C4.7369 6.37393 4.73688 6.04158 4.72482 5.70624C4.71294 5.37011 4.70701 5.03087 4.70701 4.68852C4.70701 4.39029 4.76249 4.10729 4.87358 3.83808C4.99203 3.56552 5.14631 3.33213 5.33629 3.13655C5.5329 2.93414 5.76191 2.77412 6.02202 2.65769C6.2857 2.5364 6.5667 2.47541 6.86624 2.47541H7ZM13 17.5246V17.5422L13 19H13.1338C13.6039 19 14.0589 18.9076 14.4981 18.7229C14.9377 18.538 15.3259 18.2729 15.6613 17.9275C15.9953 17.5837 16.2431 17.2075 16.4008 16.7985L16.4015 16.7965C16.5493 16.3972 16.6478 15.982 16.697 15.5512L16.6972 15.5492C16.7398 15.1292 16.752 14.6973 16.7337 14.2536C16.7159 13.8193 16.707 13.3851 16.707 12.9508C16.707 12.6467 16.7654 12.3611 16.882 12.0924L16.8826 12.091C16.9947 11.8256 17.1487 11.592 17.3452 11.3896C17.5353 11.1939 17.763 11.0342 18.0299 10.9113C18.2941 10.7957 18.5725 10.7377 18.8662 10.7377H19V10.6V9.4V9.26229H18.8662C18.573 9.26229 18.295 9.20143 18.031 9.07999L18.0289 9.07907C17.7631 8.96265 17.5363 8.80357 17.3467 8.60258L17.3438 8.59971C17.1486 8.40445 16.9951 8.17194 16.8831 7.90087L16.882 7.89838C16.7652 7.62929 16.707 7.34675 16.707 7.04918C16.707 6.61493 16.7159 6.18068 16.7337 5.74643C16.752 5.30262 16.7398 4.86772 16.6973 4.44181L16.697 4.43927C16.6477 4.01457 16.5492 3.60253 16.4015 3.20346L16.4008 3.20149C16.2431 2.79248 15.9953 2.41633 15.6613 2.07247C15.3259 1.72711 14.9377 1.46197 14.4981 1.2771C14.0589 1.09242 13.6039 1 13.1338 1H13V2.2V2.47541H13.1338C13.4336 2.47541 13.7148 2.53345 13.9786 2.64875C14.2391 2.77139 14.4671 2.93105 14.6637 3.12735C14.8542 3.32958 15.0084 3.56334 15.1267 3.82942C15.2374 4.0981 15.293 4.38394 15.293 4.68852C15.293 5.0309 15.2871 5.36717 15.2752 5.69712C15.2631 6.03841 15.2631 6.37074 15.2751 6.69408C15.2813 7.0263 15.3087 7.34676 15.3577 7.65531C15.4073 7.97464 15.4912 8.27865 15.6094 8.56696C15.7286 8.85764 15.8911 9.13381 16.0958 9.39553C16.2648 9.61178 16.4719 9.81307 16.7158 10C16.4719 10.1869 16.2648 10.3882 16.0958 10.6045C15.8911 10.8662 15.7286 11.1424 15.6094 11.433C15.4913 11.7211 15.4073 12.0224 15.3576 12.3357C15.3088 12.65 15.2813 12.9704 15.2751 13.2967C15.2631 13.6261 15.2631 13.9584 15.2752 14.2938C15.2871 14.6299 15.293 14.9691 15.293 15.3115C15.293 15.6097 15.2375 15.8927 15.1264 16.1619C15.008 16.4345 14.8537 16.6679 14.6637 16.8634C14.4671 17.0659 14.2381 17.2259 13.978 17.3423C13.7143 17.4636 13.4333 17.5246 13.1338 17.5246H13Z" fill="#C0CAD7"/>
<path d="M7 2.47541V2.87541H7.4V2.47541H7ZM7 1H7.4V0.6H7V1ZM5.50192 1.2771L5.65697 1.64582L5.65697 1.64582L5.50192 1.2771ZM4.33867 2.07247L4.6256 2.35117L4.6256 2.35117L4.33867 2.07247ZM3.59923 3.20149L3.22596 3.05761L3.22407 3.0627L3.59923 3.20149ZM3.59849 3.20347L3.97363 3.34228L3.97365 3.34225L3.59849 3.20347ZM3.30299 4.44876L2.90554 4.40334L2.90503 4.40843L3.30299 4.44876ZM3.30278 4.4508L3.70074 4.49119L3.70074 4.49113L3.30278 4.4508ZM3.26626 5.74643L2.8666 5.76283L2.8666 5.76283L3.26626 5.74643ZM3.118 7.9076L2.75105 7.74834L2.74952 7.75198L3.118 7.9076ZM3.11741 7.90901L2.74892 7.75338L2.74892 7.75339L3.11741 7.90901ZM2.65475 8.61038L2.94168 8.88908L2.94168 8.88908L2.65475 8.61038ZM1.97008 9.08875L2.13042 9.45528L2.1374 9.45207L1.97008 9.08875ZM1 9.26229V8.86229H0.6V9.26229H1ZM1 10.7377H0.6V11.1377H1V10.7377ZM1.96901 10.92L1.80182 11.2835L1.80849 11.2864L1.96901 10.92ZM1.97113 10.9209L1.8106 11.2873L1.81062 11.2873L1.97113 10.9209ZM2.65331 11.3974L2.36226 11.6721L2.37044 11.6802L2.65331 11.3974ZM2.65618 11.4003L2.37331 11.6831L2.37332 11.6831L2.65618 11.4003ZM3.11693 12.0991L2.74721 12.2519L2.74998 12.2583L3.11693 12.0991ZM3.11801 12.1016L2.75106 12.2608L2.75108 12.2609L3.11801 12.1016ZM3.26626 14.2536L2.8666 14.2372L2.8666 14.2372L3.26626 14.2536ZM3.30274 15.5582L2.90467 15.598L2.9054 15.6043L3.30274 15.5582ZM3.30303 15.5607L3.70037 15.5146L3.70037 15.5146L3.30303 15.5607ZM3.59848 16.7965L3.22331 16.9354L3.22525 16.9404L3.59848 16.7965ZM3.59924 16.7985L3.97247 16.6546L3.97247 16.6546L3.59924 16.7985ZM4.33867 17.9275L4.05174 18.2062L4.05175 18.2062L4.33867 17.9275ZM5.50192 18.7229L5.65697 18.3542L5.65697 18.3542L5.50192 18.7229ZM7 19V19.4H7.4V19H7ZM7 17.5246H7.4V17.1246H7V17.5246ZM6.02144 17.3512L5.851 17.7133L5.86123 17.7178L6.02144 17.3512ZM5.33629 16.8727L5.04499 17.1471L5.05367 17.1557L5.33629 16.8727ZM4.87334 16.1706L4.5034 16.3231L4.5078 16.333L4.87334 16.1706ZM4.72482 14.3029L5.12456 14.3173L5.12457 14.317L4.72482 14.3029ZM4.72486 13.3059L4.32486 13.3133L4.32514 13.3208L4.72486 13.3059ZM4.64234 12.3447L4.24709 12.4061L4.24728 12.4073L4.64234 12.3447ZM4.39058 11.433L4.76066 11.2813L4.76066 11.2813L4.39058 11.433ZM3.90424 10.6045L4.21936 10.3581L4.21936 10.3581L3.90424 10.6045ZM3.28424 10L3.04087 9.68255L2.6268 10L3.04087 10.3174L3.28424 10ZM3.90424 9.39553L4.21936 9.6419L4.21936 9.6419L3.90424 9.39553ZM4.39058 8.56696L4.02049 8.41518L4.02049 8.41518L4.39058 8.56696ZM4.64238 7.66427L5.03745 7.72693L5.03764 7.7257L4.64238 7.66427ZM4.72486 6.70328L4.32507 6.68867L4.32494 6.69573L4.72486 6.70328ZM4.72482 5.70624L4.32506 5.72036L4.32507 5.72062L4.72482 5.70624ZM4.87358 3.83808L4.50666 3.67862L4.50382 3.6855L4.87358 3.83808ZM5.33629 3.13655L5.62321 3.41525L5.62321 3.41525L5.33629 3.13655ZM6.02202 2.65769L6.18545 3.0228L6.18918 3.02109L6.02202 2.65769ZM13 17.5422L13.4 17.5422V17.5422H13ZM13 17.5246V17.1246H12.6V17.5246H13ZM13 19L12.6 19L12.6 19.4H13V19ZM14.4981 18.7229L14.6531 19.0916L14.6531 19.0916L14.4981 18.7229ZM15.6613 17.9275L15.3744 17.6488L15.3744 17.6488L15.6613 17.9275ZM16.4008 16.7985L16.774 16.9424L16.7759 16.9373L16.4008 16.7985ZM16.4015 16.7965L16.0264 16.6577L16.0264 16.6577L16.4015 16.7965ZM16.697 15.5512L17.0945 15.5967L17.095 15.5914L16.697 15.5512ZM16.6972 15.5492L16.2993 15.5088L16.2992 15.509L16.6972 15.5492ZM16.7337 14.2536L17.1334 14.2372L17.1334 14.2372L16.7337 14.2536ZM16.882 12.0924L17.2489 12.2517L17.2505 12.248L16.882 12.0924ZM16.8826 12.091L16.5141 11.9354L16.5141 11.9354L16.8826 12.091ZM17.3452 11.3896L17.0583 11.1109L17.0583 11.1109L17.3452 11.3896ZM18.0299 10.9113L17.8696 10.5447L17.8626 10.5479L18.0299 10.9113ZM19 10.7377V11.1377H19.4V10.7377H19ZM19 9.26229H19.4V8.86229H19V9.26229ZM18.031 9.07999L18.1982 8.71654L18.1916 8.71364L18.031 9.07999ZM18.0289 9.07907L18.1894 8.71271L18.1894 8.71268L18.0289 9.07907ZM17.3467 8.60258L17.6377 8.32795L17.6295 8.31974L17.3467 8.60258ZM17.3438 8.59971L17.061 8.88254L17.061 8.88256L17.3438 8.59971ZM16.8831 7.90087L17.2528 7.74805L17.25 7.7417L16.8831 7.90087ZM16.882 7.89838L17.249 7.73921L17.2489 7.73913L16.882 7.89838ZM16.7337 5.74643L17.1334 5.76283L17.1334 5.76283L16.7337 5.74643ZM16.6973 4.44181L17.0953 4.40201L17.0946 4.39568L16.6973 4.44181ZM16.697 4.43927L16.2996 4.48535L16.2996 4.4854L16.697 4.43927ZM16.4015 3.20346L16.7767 3.06463L16.7748 3.05962L16.4015 3.20346ZM16.4008 3.20149L16.774 3.05766L16.774 3.05763L16.4008 3.20149ZM15.6613 2.07247L15.9483 1.79377L15.9483 1.79376L15.6613 2.07247ZM14.4981 1.2771L14.343 1.64582L14.343 1.64582L14.4981 1.2771ZM13 1V0.6H12.6V1H13ZM13 2.47541H12.6V2.87541H13V2.47541ZM13.9786 2.64875L14.149 2.28671L14.1388 2.28224L13.9786 2.64875ZM14.6637 3.12735L14.955 2.85295L14.9463 2.84428L14.6637 3.12735ZM15.1267 3.82942L15.4966 3.6769L15.4922 3.66701L15.1267 3.82942ZM15.2752 5.69712L14.8754 5.68274L14.8754 5.683L15.2752 5.69712ZM15.2751 6.69408L15.6751 6.68667L15.6749 6.6792L15.2751 6.69408ZM15.3577 7.65531L15.7529 7.59386L15.7527 7.59268L15.3577 7.65531ZM15.6094 8.56696L15.2393 8.71874L15.2393 8.71874L15.6094 8.56696ZM16.0958 9.39553L16.4109 9.14917L16.4109 9.14917L16.0958 9.39553ZM16.7158 10L16.9591 10.3174L17.3732 10L16.9591 9.68255L16.7158 10ZM16.0958 10.6045L16.4109 10.8508L16.4109 10.8508L16.0958 10.6045ZM15.6094 11.433L15.9795 11.5848L15.9795 11.5848L15.6094 11.433ZM15.3576 12.3357L14.9625 12.2731L14.9624 12.2743L15.3576 12.3357ZM15.2751 13.2967L15.6749 13.3113L15.6751 13.3043L15.2751 13.2967ZM15.2752 14.2938L15.6749 14.2796L15.6749 14.2794L15.2752 14.2938ZM15.1264 16.1619L15.4933 16.3214L15.4962 16.3145L15.1264 16.1619ZM14.6637 16.8634L14.9506 17.1422L14.9506 17.1422L14.6637 16.8634ZM13.978 17.3423L13.8145 16.9772L13.8108 16.9789L13.978 17.3423ZM6.6 2.45777V2.47541H7.4V2.45777H6.6ZM6.6 1V2.45777H7.4V1H6.6ZM6.86624 1.4H7V0.6H6.86624V1.4ZM5.65697 1.64582C6.04774 1.4815 6.45012 1.4 6.86624 1.4V0.6C6.34216 0.6 5.83446 0.703336 5.34687 0.90837L5.65697 1.64582ZM4.6256 2.35117C4.92384 2.04413 5.26719 1.80972 5.65697 1.64582L5.34687 0.90837C4.85733 1.11422 4.42443 1.41009 4.05175 1.79377L4.6256 2.35117ZM3.97246 3.34535C4.10861 2.99214 4.32482 2.66082 4.6256 2.35117L4.05175 1.79377C3.68452 2.17183 3.40516 2.59281 3.22599 3.05762L3.97246 3.34535ZM3.97365 3.34225L3.97438 3.34027L3.22407 3.0627L3.22334 3.06468L3.97365 3.34225ZM3.7004 4.49417C3.74605 4.09474 3.83722 3.71093 3.97363 3.34228L3.22335 3.06465C3.06423 3.49467 2.95838 3.94128 2.90557 4.40334L3.7004 4.49417ZM3.70074 4.49113L3.70095 4.48909L2.90503 4.40843L2.90482 4.41047L3.70074 4.49113ZM3.66592 5.73002C3.64845 5.30417 3.66014 4.89127 3.70074 4.49119L2.90483 4.41041C2.86019 4.85023 2.84765 5.30115 2.8666 5.76283L3.66592 5.73002ZM3.69299 7.04918C3.69299 6.60946 3.68397 6.16974 3.66592 5.73002L2.8666 5.76283C2.88419 6.19162 2.89299 6.62041 2.89299 7.04918H3.69299ZM3.48493 8.06685C3.62411 7.74616 3.69299 7.40621 3.69299 7.04918H2.89299C2.89299 7.30048 2.84512 7.53165 2.75107 7.74835L3.48493 8.06685ZM3.48589 8.06463L3.48649 8.06322L2.74952 7.75198L2.74892 7.75338L3.48589 8.06463ZM2.94168 8.88908C3.17367 8.65024 3.35494 8.3747 3.48589 8.06463L2.74892 7.75339C2.65568 7.97418 2.52901 8.16574 2.36783 8.33168L2.94168 8.88908ZM2.1374 9.45207C2.44634 9.30979 2.71525 9.12218 2.94168 8.88908L2.36783 8.33168C2.21407 8.48997 2.02763 8.62186 1.80276 8.72542L2.1374 9.45207ZM1.13376 9.66229C1.48187 9.66229 1.81496 9.5932 2.13039 9.45522L1.80977 8.72228C1.59683 8.81542 1.37305 8.86229 1.13376 8.86229V9.66229ZM1 9.66229H1.13376V8.86229H1V9.66229ZM1.4 9.4V9.26229H0.6V9.4H1.4ZM1.4 10.6V9.4H0.6V10.6H1.4ZM1.4 10.7377V10.6H0.6V10.7377H1.4ZM1.13376 10.3377H1V11.1377H1.13376V10.3377ZM2.13617 10.5566C1.81949 10.4109 1.4844 10.3377 1.13376 10.3377V11.1377C1.36955 11.1377 1.59055 11.1862 1.80185 11.2834L2.13617 10.5566ZM2.13165 10.5546L2.12954 10.5536L1.80849 11.2864L1.8106 11.2873L2.13165 10.5546ZM2.94424 11.1229C2.71644 10.8815 2.44483 10.6918 2.13164 10.5545L1.81062 11.2873C2.02889 11.3829 2.21088 11.5114 2.36238 11.6719L2.94424 11.1229ZM2.93904 11.1175L2.93618 11.1146L2.37044 11.6802L2.37331 11.6831L2.93904 11.1175ZM3.48659 11.9463C3.35564 11.6295 3.17362 11.3521 2.93903 11.1175L2.37332 11.6831C2.52922 11.839 2.65414 12.0266 2.74726 12.2519L3.48659 11.9463ZM3.48496 11.9424L3.48388 11.9399L2.74998 12.2583L2.75106 12.2608L3.48496 11.9424ZM3.69299 12.9508C3.69299 12.5993 3.62387 12.2625 3.48494 11.9424L2.75108 12.2609C2.84572 12.4789 2.89299 12.7072 2.89299 12.9508H3.69299ZM3.66592 14.27C3.68397 13.8303 3.69299 13.3905 3.69299 12.9508H2.89299C2.89299 13.3796 2.88419 13.8084 2.8666 14.2372L3.66592 14.27ZM3.70075 15.5184C3.66011 15.1119 3.64845 14.6958 3.66592 14.27L2.8666 14.2372C2.84764 14.699 2.86019 15.1527 2.90472 15.598L3.70075 15.5184ZM3.70037 15.5146L3.70007 15.5121L2.9054 15.6043L2.9057 15.6068L3.70037 15.5146ZM3.97362 16.6577C3.83707 16.2887 3.74597 15.9078 3.70037 15.5146L2.9057 15.6068C2.95861 16.0631 3.06455 16.5062 3.22334 16.9354L3.97362 16.6577ZM3.97247 16.6546L3.97171 16.6527L3.22525 16.9404L3.22601 16.9424L3.97247 16.6546ZM4.6256 17.6488C4.32483 17.3392 4.10862 17.0079 3.97247 16.6546L3.22601 16.9424C3.40517 17.4072 3.68451 17.8282 4.05174 18.2062L4.6256 17.6488ZM5.65697 18.3542C5.26719 18.1903 4.92384 17.9559 4.6256 17.6488L4.05175 18.2062C4.42443 18.5899 4.85733 18.8858 5.34687 19.0916L5.65697 18.3542ZM6.86624 18.6C6.45012 18.6 6.04774 18.5185 5.65697 18.3542L5.34686 19.0916C5.83446 19.2967 6.34216 19.4 6.86624 19.4V18.6ZM7 18.6H6.86624V19.4H7V18.6ZM6.6 17.8V19H7.4V17.8H6.6ZM6.6 17.5246V17.8H7.4V17.5246H6.6ZM6.86624 17.9246H7V17.1246H6.86624V17.9246ZM5.86123 17.7178C6.17718 17.8559 6.51314 17.9246 6.86624 17.9246V17.1246C6.6197 17.1246 6.3932 17.0772 6.18166 16.9847L5.86123 17.7178ZM5.05367 17.1557C5.28375 17.3854 5.55002 17.5714 5.85107 17.7132L6.19182 16.9893C5.97186 16.8858 5.78205 16.7525 5.61891 16.5896L5.05367 17.1557ZM4.5078 16.333C4.64348 16.6384 4.82232 16.9104 5.04513 17.1469L5.62745 16.5984C5.46927 16.4305 5.33964 16.2349 5.23889 16.0082L4.5078 16.333ZM4.30701 15.3115C4.30701 15.6661 4.37199 16.004 4.50354 16.323L5.24315 16.0181C5.15315 15.7998 5.10701 15.566 5.10701 15.3115H4.30701ZM4.32508 14.2885C4.31303 14.6234 4.30701 14.9645 4.30701 15.3115H5.10701C5.10701 14.9737 5.11287 14.6422 5.12456 14.3173L4.32508 14.2885ZM4.32514 13.3208C4.3368 13.6339 4.3368 13.9566 4.32507 14.2888L5.12457 14.317C5.13695 13.9666 5.13701 13.6246 5.12459 13.291L4.32514 13.3208ZM4.24728 12.4073C4.29311 12.6964 4.3191 12.9984 4.32493 13.3133L5.1248 13.2985C5.11832 12.949 5.08942 12.6101 5.03741 12.282L4.24728 12.4073ZM4.02049 11.5848C4.12636 11.843 4.20207 12.1166 4.24709 12.4061L5.03759 12.2832C4.98332 11.9342 4.89128 11.5997 4.76066 11.2813L4.02049 11.5848ZM3.58912 10.8508C3.77275 11.0857 3.91612 11.3303 4.02049 11.5848L4.76066 11.2813C4.62661 10.9544 4.44498 10.6467 4.21936 10.3581L3.58912 10.8508ZM3.04087 10.3174C3.26155 10.4866 3.44354 10.6646 3.58912 10.8508L4.21936 10.3581C4.02681 10.1118 3.79459 9.88723 3.52761 9.68255L3.04087 10.3174ZM3.58912 9.14917C3.44354 9.33537 3.26155 9.51337 3.04087 9.68255L3.52761 10.3174C3.79459 10.1128 4.02681 9.88819 4.21936 9.6419L3.58912 9.14917ZM4.02049 8.41518C3.91612 8.66968 3.77275 8.91429 3.58912 9.14917L4.21936 9.6419C4.44498 9.35332 4.62661 9.04561 4.76066 8.71874L4.02049 8.41518ZM4.24732 7.60162C4.20237 7.88506 4.12661 8.15643 4.02049 8.41518L4.76066 8.71874C4.89078 8.40147 4.98301 8.07018 5.03745 7.72692L4.24732 7.60162ZM4.32494 6.69573C4.31911 7.0045 4.29313 7.30685 4.24713 7.60284L5.03764 7.7257C5.08934 7.39306 5.1183 7.05469 5.12479 6.71083L4.32494 6.69573ZM4.32507 5.72062C4.3368 6.04648 4.33681 6.36916 4.32513 6.68867L5.1246 6.71789C5.13699 6.3787 5.13696 6.03667 5.12456 5.69186L4.32507 5.72062ZM4.30701 4.68852C4.30701 5.03549 4.31302 5.37944 4.32506 5.72036L5.12457 5.69212C5.11286 5.36077 5.10701 5.02624 5.10701 4.68852H4.30701ZM4.50382 3.6855C4.37231 4.00421 4.30701 4.33915 4.30701 4.68852H5.10701C5.10701 4.44142 5.15267 4.21037 5.24333 3.99065L4.50382 3.6855ZM5.04936 2.85785C4.82315 3.09074 4.64285 3.36542 4.50672 3.67864L5.24043 3.99751C5.34121 3.76562 5.46948 3.57353 5.62321 3.41525L5.04936 2.85785ZM5.8586 2.2926C5.55259 2.42957 5.28158 2.61878 5.04936 2.85785L5.62321 3.41525C5.78423 3.24949 5.97124 3.11867 6.18544 3.02279L5.8586 2.2926ZM6.86624 2.07541C6.51044 2.07541 6.17227 2.14829 5.85486 2.29429L6.18918 3.02109C6.39913 2.92451 6.62296 2.87541 6.86624 2.87541V2.07541ZM7 2.07541H6.86624V2.87541H7V2.07541ZM13.4 17.5422V17.5246H12.6V17.5422H13.4ZM13.4 19L13.4 17.5422L12.6 17.5422L12.6 19L13.4 19ZM13.1338 18.6H13V19.4H13.1338V18.6ZM14.343 18.3542C13.9523 18.5185 13.5499 18.6 13.1338 18.6V19.4C13.6578 19.4 14.1655 19.2967 14.6531 19.0916L14.343 18.3542ZM15.3744 17.6488C15.0762 17.9559 14.7328 18.1903 14.343 18.3542L14.6531 19.0916C15.1427 18.8858 15.5756 18.5899 15.9483 18.2062L15.3744 17.6488ZM16.0275 16.6546C15.8914 17.0079 15.6752 17.3392 15.3744 17.6488L15.9483 18.2062C16.3155 17.8282 16.5948 17.4072 16.774 16.9424L16.0275 16.6546ZM16.0264 16.6577L16.0256 16.6597L16.7759 16.9373L16.7767 16.9353L16.0264 16.6577ZM16.2996 15.5058C16.254 15.9053 16.1628 16.2891 16.0264 16.6577L16.7766 16.9353C16.9358 16.5053 17.0416 16.0587 17.0944 15.5967L16.2996 15.5058ZM16.2992 15.509L16.299 15.5111L17.095 15.5914L17.0952 15.5894L16.2992 15.509ZM16.3341 14.27C16.3516 14.6958 16.3399 15.1087 16.2993 15.5088L17.0952 15.5896C17.1398 15.1498 17.1524 14.6988 17.1334 14.2372L16.3341 14.27ZM16.307 12.9508C16.307 13.3905 16.316 13.8303 16.3341 14.27L17.1334 14.2372C17.1158 13.8084 17.107 13.3796 17.107 12.9508H16.307ZM16.5151 11.9331C16.3759 12.2538 16.307 12.5938 16.307 12.9508H17.107C17.107 12.6995 17.1549 12.4684 17.2489 12.2516L16.5151 11.9331ZM16.5141 11.9354L16.5135 11.9368L17.2505 12.248L17.2511 12.2466L16.5141 11.9354ZM17.0583 11.1109C16.8263 11.3498 16.6451 11.6253 16.5141 11.9354L17.2511 12.2466C17.3443 12.0258 17.471 11.8343 17.6322 11.6683L17.0583 11.1109ZM17.8626 10.5479C17.5537 10.6902 17.2847 10.8778 17.0583 11.1109L17.6322 11.6683C17.7859 11.51 17.9724 11.3781 18.1972 11.2746L17.8626 10.5479ZM18.8662 10.3377C18.5181 10.3377 18.185 10.4068 17.8696 10.5448L18.1902 11.2777C18.4032 11.1846 18.627 11.1377 18.8662 11.1377V10.3377ZM19 10.3377H18.8662V11.1377H19V10.3377ZM18.6 10.6V10.7377H19.4V10.6H18.6ZM18.6 9.4V10.6H19.4V9.4H18.6ZM18.6 9.26229V9.4H19.4V9.26229H18.6ZM18.8662 9.66229H19V8.86229H18.8662V9.66229ZM17.8638 9.44339C18.1805 9.58906 18.5156 9.66229 18.8662 9.66229V8.86229C18.6304 8.86229 18.4095 8.8138 18.1981 8.7166L17.8638 9.44339ZM17.8683 9.44542L17.8704 9.44635L18.1916 8.71364L18.1894 8.71271L17.8683 9.44542ZM17.0558 8.8771C17.2836 9.11851 17.5552 9.30824 17.8684 9.44545L18.1894 8.71268C17.9711 8.61706 17.7891 8.48862 17.6376 8.32806L17.0558 8.8771ZM17.061 8.88256L17.0638 8.88542L17.6295 8.31974L17.6267 8.31687L17.061 8.88256ZM16.5134 8.05367C16.6444 8.37049 16.8264 8.64794 17.061 8.88254L17.6267 8.31688C17.4708 8.16097 17.3459 7.97338 17.2527 7.74808L16.5134 8.05367ZM16.515 8.05756L16.5161 8.06005L17.25 7.7417L17.249 7.73921L16.515 8.05756ZM16.307 7.04918C16.307 7.4007 16.3761 7.73752 16.5151 8.05763L17.2489 7.73913C17.1543 7.52107 17.107 7.29281 17.107 7.04918H16.307ZM16.3341 5.73002C16.316 6.16974 16.307 6.60946 16.307 7.04918H17.107C17.107 6.62041 17.1158 6.19162 17.1334 5.76283L16.3341 5.73002ZM16.2992 4.48161C16.3399 4.88811 16.3516 5.30421 16.3341 5.73002L17.1334 5.76283C17.1524 5.30103 17.1398 4.84733 17.0953 4.40202L16.2992 4.48161ZM16.2996 4.4854L16.2999 4.48795L17.0946 4.39568L17.0943 4.39314L16.2996 4.4854ZM16.0264 3.34227C16.1629 3.7113 16.254 4.0922 16.2996 4.48535L17.0943 4.39318C17.0414 3.93694 16.9354 3.49376 16.7767 3.06464L16.0264 3.34227ZM16.0275 3.34532L16.0283 3.34729L16.7748 3.05962L16.774 3.05766L16.0275 3.34532ZM15.3744 2.35117C15.6752 2.66081 15.8914 2.99214 16.0275 3.34535L16.774 3.05763C16.5948 2.59282 16.3155 2.17184 15.9483 1.79377L15.3744 2.35117ZM14.343 1.64582C14.7328 1.80972 15.0762 2.04413 15.3744 2.35117L15.9483 1.79376C15.5756 1.41009 15.1427 1.11422 14.6531 0.908369L14.343 1.64582ZM13.1338 1.4C13.5499 1.4 13.9523 1.4815 14.343 1.64582L14.6531 0.908369C14.1655 0.703333 13.6578 0.6 13.1338 0.6V1.4ZM13 1.4H13.1338V0.6H13V1.4ZM13.4 2.2V1H12.6V2.2H13.4ZM13.4 2.47541V2.2H12.6V2.47541H13.4ZM13.1338 2.07541H13V2.87541H13.1338V2.07541ZM14.1388 2.28224C13.8228 2.14412 13.4869 2.07541 13.1338 2.07541V2.87541C13.3803 2.87541 13.6068 2.92279 13.8183 3.01526L14.1388 2.28224ZM14.9463 2.84428C14.7162 2.61456 14.45 2.42857 14.1489 2.28685L13.8082 3.01065C14.0281 3.1142 14.2179 3.24753 14.3811 3.41041L14.9463 2.84428ZM15.4922 3.66701C15.3565 3.36161 15.1777 3.08961 14.9549 2.85308L14.3725 3.40162C14.5307 3.56954 14.6604 3.76507 14.7611 3.99183L15.4922 3.66701ZM15.693 4.68852C15.693 4.33388 15.628 3.99603 15.4965 3.67695L14.7569 3.98188C14.8469 4.20017 14.893 4.434 14.893 4.68852H15.693ZM15.6749 5.7115C15.687 5.3766 15.693 5.03553 15.693 4.68852H14.893C14.893 5.02628 14.8871 5.35775 14.8754 5.68274L15.6749 5.7115ZM15.6749 6.6792C15.6632 6.36605 15.6632 6.04341 15.6749 5.71124L14.8754 5.683C14.8631 6.03341 14.863 6.37543 14.8754 6.70897L15.6749 6.6792ZM15.7527 7.59268C15.7069 7.30359 15.6809 7.00164 15.6751 6.68667L14.8752 6.70149C14.8817 7.05096 14.9106 7.38993 14.9626 7.71795L15.7527 7.59268ZM15.9795 8.41518C15.8736 8.15703 15.7979 7.88345 15.7529 7.59386L14.9624 7.71677C15.0167 8.06583 15.1087 8.40026 15.2393 8.71874L15.9795 8.41518ZM16.4109 9.14917C16.2273 8.91429 16.0839 8.66968 15.9795 8.41518L15.2393 8.71874C15.3734 9.04561 15.555 9.35332 15.7806 9.6419L16.4109 9.14917ZM16.9591 9.68255C16.7384 9.51337 16.5565 9.33537 16.4109 9.14917L15.7806 9.6419C15.9732 9.88819 16.2054 10.1128 16.4724 10.3174L16.9591 9.68255ZM16.4109 10.8508C16.5565 10.6646 16.7384 10.4866 16.9591 10.3174L16.4724 9.68255C16.2054 9.88723 15.9732 10.1118 15.7806 10.3581L16.4109 10.8508ZM15.9795 11.5848C16.0839 11.3303 16.2273 11.0857 16.4109 10.8508L15.7806 10.3581C15.555 10.6467 15.3734 10.9544 15.2393 11.2813L15.9795 11.5848ZM15.7527 12.3984C15.7976 12.1149 15.8734 11.8436 15.9795 11.5848L15.2393 11.2813C15.1092 11.5985 15.017 11.9298 14.9626 12.2731L15.7527 12.3984ZM15.6751 13.3043C15.6809 12.9955 15.7069 12.6932 15.7529 12.3972L14.9624 12.2743C14.9107 12.6069 14.8817 12.9453 14.8752 13.2892L15.6751 13.3043ZM15.6749 14.2794C15.6632 13.9535 15.6632 13.6308 15.6749 13.3113L14.8754 13.2821C14.863 13.6213 14.863 13.9633 14.8754 14.3081L15.6749 14.2794ZM15.693 15.3115C15.693 14.9645 15.687 14.6206 15.6749 14.2796L14.8754 14.3079C14.8871 14.6392 14.893 14.9738 14.893 15.3115H15.693ZM15.4962 16.3145C15.6277 15.9958 15.693 15.6608 15.693 15.3115H14.893C14.893 15.5586 14.8473 15.7896 14.7567 16.0093L15.4962 16.3145ZM14.9506 17.1422C15.1768 16.9093 15.3572 16.6346 15.4933 16.3214L14.7596 16.0025C14.6588 16.2344 14.5305 16.4265 14.3768 16.5847L14.9506 17.1422ZM14.1414 17.7074C14.4474 17.5704 14.7184 17.3812 14.9506 17.1422L14.3768 16.5847C14.2158 16.7505 14.0288 16.8813 13.8146 16.9772L14.1414 17.7074ZM13.1338 17.9246C13.4896 17.9246 13.8277 17.8517 14.1451 17.7057L13.8108 16.9789C13.6009 17.0755 13.377 17.1246 13.1338 17.1246V17.9246ZM13 17.9246H13.1338V17.1246H13V17.9246Z" fill="#C0CAD7" mask="url(#path-1-outside-1_664_3578)"/>
</svg>
