<svg width="24" height="24" viewBox="0 0 24 24" fill="none" xmlns="http://www.w3.org/2000/svg">
<path fill-rule="evenodd" clip-rule="evenodd" d="M18 17L10 17C7.79086 17 6 15.2091 6 13L6 5C6 2.79086 7.79086 1 10 1L18 1C20.2091 1 22 2.79086 22 5L22 13C22 15.2091 20.2091 17 18 17ZM17.6923 3L10.3077 3C9.69565 3 9.10868 3.24313 8.67591 3.67591C8.24313 4.10869 8 4.69566 8 5.30769L8 12.6923C8 13.9668 9.03319 15 10.3077 15L17.6923 15C18.9668 15 20 13.9668 20 12.6923L20 5.30769C20 4.03319 18.9668 3 17.6923 3Z" fill="#C0CAD7"/>
<path d="M15 21C14.9944 20.5728 14.6494 20.0056 14.2222 20L6 20C4.5 20 3 18.5 3 17.0741L3 8.77778C3 8.34822 2.42955 8 2 8C1.57045 8 0.999999 8.34822 0.999999 8.77778L1 17.0741C1 19.7946 3.20541 22 5.92593 22L14.2222 22C14.6494 21.9944 14.9944 21.4272 15 21Z" fill="#C0CAD7"/>
<path d="M16 10V7C16 6.45 15.55 6 15 6H13V11H15C15.55 11 16 10.55 16 10ZM14 7H15V10H14V7ZM18 9H19V8H18V7H19V6H17V11H18V9ZM10 9H11C11.55 9 12 8.55 12 8V7C12 6.45 11.55 6 11 6H9V11H10V9ZM10 7H11V8H10V7Z" fill="#C0CAD7"/>
</svg>
