<svg width="50" height="50" viewBox="0 0 50 50" fill="none" xmlns="http://www.w3.org/2000/svg">
<path fill-rule="evenodd" clip-rule="evenodd" d="M39.5978 4.16675H31.6613C30.7221 4.16675 29.9606 4.92817 29.9606 5.86743C29.9606 6.80669 30.7221 7.56811 31.6613 7.56811H39.5978C41.1633 7.56811 42.4323 8.83714 42.4323 10.4026V18.3391C42.4323 19.2783 43.1937 20.0398 44.133 20.0398C45.0722 20.0398 45.8337 19.2783 45.8337 18.3391V10.4026C45.8337 6.95862 43.0418 4.16675 39.5978 4.16675ZM10.4028 42.4321H18.3393C19.2786 42.4321 20.04 43.1935 20.04 44.1327C20.04 45.072 19.2786 45.8334 18.3393 45.8334H10.4028C6.95887 45.8334 4.16699 43.0415 4.16699 39.5976V31.6611C4.16699 31.0535 4.49114 30.4921 5.01733 30.1883C5.54352 29.8845 6.19182 29.8845 6.71801 30.1883C7.2442 30.4921 7.56835 31.0535 7.56835 31.6611V39.5976C7.56835 41.163 8.83739 42.4321 10.4028 42.4321ZM42.4323 31.6635C42.4323 30.7229 43.1937 29.9604 44.133 29.9604C45.0635 29.9603 45.8213 30.7091 45.8337 31.6408V39.5887C45.8337 43.0376 43.0418 45.8334 39.5978 45.8334H31.6613C30.7221 45.8334 29.9606 45.0709 29.9606 44.1303C29.9606 43.1897 30.7221 42.4272 31.6613 42.4272H39.5978C41.1633 42.4272 42.4323 41.1563 42.4323 39.5887V31.6635ZM10.4028 4.16675H18.3393C19.2786 4.16675 20.04 4.92817 20.04 5.86743C20.04 6.80669 19.2786 7.56811 18.3393 7.56811H10.4028C8.83739 7.56811 7.56835 8.83714 7.56835 10.4026V18.3391C7.56835 19.2783 6.80693 20.0398 5.86767 20.0398C4.92841 20.0398 4.16699 19.2783 4.16699 18.3391V10.4026C4.16699 6.95862 6.95887 4.16675 10.4028 4.16675Z" fill="#C0CAD7"/>
<path d="M20.5357 15.1786V20.5357H15.1786V15.1786H20.5357ZM23.2143 12.5H12.5V23.2143H23.2143V12.5ZM20.5357 29.4643V34.8214H15.1786V29.4643H20.5357ZM23.2143 26.7857H12.5V37.5H23.2143V26.7857ZM34.8214 15.1786V20.5357H29.4643V15.1786H34.8214ZM37.5 12.5H26.7857V23.2143H37.5V12.5ZM26.7857 26.7857H29.4643V29.4643H26.7857V26.7857ZM29.4643 29.4643H32.1429V32.1429H29.4643V29.4643ZM32.1429 26.7857H34.8214V29.4643H32.1429V26.7857ZM26.7857 32.1429H29.4643V34.8214H26.7857V32.1429ZM29.4643 34.8214H32.1429V37.5H29.4643V34.8214ZM32.1429 32.1429H34.8214V34.8214H32.1429V32.1429ZM34.8214 29.4643H37.5V32.1429H34.8214V29.4643ZM34.8214 34.8214H37.5V37.5H34.8214V34.8214Z" fill="#C0CAD7"/>
</svg>
