<svg width="27" height="24" viewBox="0 0 27 24" fill="none" xmlns="http://www.w3.org/2000/svg">
<g clip-path="url(#clip0_617_13390)">
<path fill-rule="evenodd" clip-rule="evenodd" d="M19.0502 6.32902C19.4887 6.32902 19.9173 6.4603 20.2819 6.70626C20.6465 6.95222 20.9306 7.30182 21.0984 7.71083C21.2662 8.11985 21.3101 8.56992 21.2246 9.00413C21.1391 9.43834 20.9279 9.83719 20.6179 10.1502C20.3078 10.4633 19.9128 10.6765 19.4827 10.7628C19.0527 10.8492 18.6069 10.8049 18.2018 10.6355C17.7967 10.466 17.4505 10.1791 17.2069 9.81103C16.9633 9.44293 16.8332 9.01015 16.8332 8.56744C16.8332 8.27348 16.8906 7.98241 17.002 7.71083C17.1134 7.43926 17.2767 7.1925 17.4826 6.98464C17.6884 6.77678 17.9328 6.6119 18.2018 6.49941C18.4708 6.38692 18.7591 6.32902 19.0502 6.32902ZM24.3885 21H3.61341C3.1857 20.9981 2.77617 20.8251 2.47465 20.5188C2.32453 20.3681 2.20533 20.1889 2.12388 19.9916C2.04243 19.7943 2.00034 19.5828 2 19.369L2 4.62901C2.00007 4.197 2.1701 3.78271 2.47269 3.47727C2.77521 3.17175 3.18554 3.00007 3.61341 3H24.3885C24.816 3.00112 25.2256 3.17348 25.5273 3.47924C25.8299 3.78468 25.9999 4.19897 26 4.63099V19.369C25.9999 19.5826 25.9581 19.7941 25.877 19.9914C25.7959 20.1887 25.6771 20.3679 25.5273 20.5188C25.2258 20.8251 24.8163 20.9981 24.3885 21ZM22.9529 19.1402L19.1108 12.9516C19.0312 12.8241 18.921 12.719 18.7904 12.6461C18.6597 12.5733 18.5129 12.5351 18.3636 12.5351C18.2144 12.5351 18.0676 12.5733 17.9369 12.6461C17.8063 12.719 17.696 12.8241 17.6165 12.9516L15.8019 15.896L17.7767 19.1402H16.9661L11.5809 10.4627C11.0847 9.79413 10.2897 9.8454 9.84634 10.4627L4.57247 19.1402H3.83999V4.85778H24.1541V19.1402H22.9529Z" fill="#F9F9F9"/>
</g>
<defs>
<clipPath id="clip0_617_13390">
<rect width="26" height="24" fill="white" transform="translate(0.5)"/>
</clipPath>
</defs>
</svg>
