<svg width="32" height="32" viewBox="0 0 32 32" fill="none" xmlns="http://www.w3.org/2000/svg">
<path fill-rule="evenodd" clip-rule="evenodd" d="M16 18.6666C17.4728 18.6666 18.6667 17.4727 18.6667 16C18.6667 14.5272 17.4728 13.3333 16 13.3333C14.5273 13.3333 13.3334 14.5272 13.3334 16C13.3334 17.4727 14.5273 18.6666 16 18.6666Z" stroke="#7B8794" stroke-linecap="round" stroke-linejoin="round"/>
<path fill-rule="evenodd" clip-rule="evenodd" d="M26.6667 18.6666C28.1394 18.6666 29.3333 17.4727 29.3333 16C29.3333 14.5272 28.1394 13.3333 26.6667 13.3333C25.1939 13.3333 24 14.5272 24 16C24 17.4727 25.1939 18.6666 26.6667 18.6666Z" stroke="#7B8794" stroke-linecap="round" stroke-linejoin="round"/>
<path fill-rule="evenodd" clip-rule="evenodd" d="M5.33329 18.6666C6.80605 18.6666 7.99996 17.4727 7.99996 16C7.99996 14.5272 6.80605 13.3333 5.33329 13.3333C3.86053 13.3333 2.66663 14.5272 2.66663 16C2.66663 17.4727 3.86053 18.6666 5.33329 18.6666Z" stroke="#7B8794" stroke-linecap="round" stroke-linejoin="round"/>
</svg>
