<svg width="32" height="32" viewBox="0 0 32 32" fill="none" xmlns="http://www.w3.org/2000/svg">
<path d="M29.3333 25.3334H21.3333V20H17.76C16.24 23.2267 12.96 25.3334 9.33333 25.3334C4.18667 25.3334 0 21.1467 0 16C0 10.8534 4.18667 6.66669 9.33333 6.66669C12.96 6.66669 16.2267 8.77335 17.76 12H32V20H29.3333V25.3334ZM24 22.6667H26.6667V17.3334H29.3333V14.6667H15.92L15.6133 13.7734C14.68 11.12 12.1467 9.33335 9.33333 9.33335C5.65333 9.33335 2.66667 12.32 2.66667 16C2.66667 19.68 5.65333 22.6667 9.33333 22.6667C12.1467 22.6667 14.68 20.88 15.6133 18.2267L15.92 17.3334H24V22.6667ZM9.33333 20C7.13333 20 5.33333 18.2 5.33333 16C5.33333 13.8 7.13333 12 9.33333 12C11.5333 12 13.3333 13.8 13.3333 16C13.3333 18.2 11.5333 20 9.33333 20ZM9.33333 14.6667C8.6 14.6667 8 15.2667 8 16C8 16.7334 8.6 17.3334 9.33333 17.3334C10.0667 17.3334 10.6667 16.7334 10.6667 16C10.6667 15.2667 10.0667 14.6667 9.33333 14.6667Z" fill="#2F80ED"/>
</svg>
